# 3ds Max Wavefront OBJ Exporter v0.97b - (c)2007 guruware
# File Created: 31.01.2015 21:16:28

#
# object house
#

v  -7.006135 0.000000 8.580400
v  7.006135 0.000000 8.580400
v  -7.006135 0.000000 -8.580400
v  7.006135 0.000000 -8.580400
v  -9.097148 13.721288 8.580400
v  9.416342 13.721288 8.580400
v  -9.097148 13.721288 -8.580400
v  9.416342 13.721288 -8.580400
v  3.102858 0.628445 -8.580400
v  -3.102858 0.628445 -8.580400
v  -3.539085 12.075312 -8.580400
v  3.539085 12.075312 -8.580400
v  3.102858 0.628445 -7.796371
v  -3.102858 0.628445 -7.796371
v  -3.539085 12.075312 -7.796371
v  3.539085 12.075312 -7.796371
v  -3.956398 0.456008 -8.204000
v  3.956398 0.456008 -8.204000
v  3.956398 0.456008 -10.244159
v  -3.956398 0.456008 -10.244159
v  -3.956398 0.000000 -8.204000
v  3.956398 0.000000 -8.204000
v  3.956398 0.000000 -10.244159
v  -3.956398 0.000000 -10.244159
v  0.000000 0.000000 -8.580400
v  0.000000 0.000000 8.580400
v  0.000000 19.750238 8.580400
v  0.000000 19.750238 -8.580400
v  0.000000 0.628445 -8.580400
v  0.000000 12.075312 -8.580400
v  0.000000 0.628445 -7.796371
v  0.000000 12.075312 -7.796371
v  -13.978047 11.046241 9.575823
v  -0.429092 22.982952 10.004913
v  0.327589 23.686611 -9.575823
v  -13.978047 11.046241 -9.575823
v  14.352874 11.259276 10.004913
v  14.454378 11.735452 -9.575823
v  0.429092 19.319883 -10.004913
v  -12.243048 9.220559 -10.004913
v  12.863607 9.516214 -9.575823
v  -0.429092 19.308571 10.004913
v  -12.672140 8.668855 9.575823
v  12.434516 10.012177 10.004913
v  -14.293180 10.325926 9.575823
v  -13.864088 10.567293 10.004913
v  0.429092 23.038694 10.004913
v  0.327589 23.686611 9.575823
v  -0.315133 23.672525 9.575823
v  0.429092 23.038694 -10.004913
v  -0.429092 22.982952 -10.004913
v  -0.315133 23.672525 -9.575823
v  -13.864088 10.567293 -10.004913
v  -14.293180 10.325926 -9.575823
v  14.781966 11.029222 9.575823
v  14.454378 11.735452 9.575823
v  14.781966 11.029222 -9.575823
v  14.352874 11.259276 -10.004913
v  0.327589 18.843710 -9.575823
v  -0.315133 18.829624 -9.575823
v  -0.429092 19.308571 -10.004913
v  -12.357007 8.530987 -9.575823
v  -12.672140 8.668855 -9.575823
v  12.536019 9.364261 -9.575823
v  12.434516 10.012177 -10.004913
v  -0.315133 18.829624 9.575823
v  0.327589 18.843710 9.575823
v  0.429092 19.319883 10.004913
v  -12.357007 8.530987 9.575823
v  -12.243048 9.220559 10.004913
v  12.536019 9.364261 9.575823
v  12.863607 9.516214 9.575823
v  -6.878619 26.877254 6.336151
v  -3.497608 26.877254 6.336151
v  -3.497608 26.877254 2.378656
v  -6.878619 26.877254 2.378656
v  -6.406816 16.337641 6.336151
v  -3.025805 16.337641 6.336151
v  -3.025805 16.337641 2.378656
v  -6.406816 16.337641 2.378656
v  -2.905727 25.093870 2.378656
v  -6.420547 23.937498 2.378656
v  -6.420547 23.937498 6.336151
v  -2.905727 25.093870 6.336151
v  -6.654413 22.239744 6.336151
v  -3.178274 21.480389 6.336151
v  -3.178274 21.480389 2.378656
v  -6.654413 22.239744 2.378656
# 88 vertices

vn 0.000000 -1.000000 -0.000000
vn -0.552426 0.833562 -0.000000
vn 0.000000 0.000000 1.000000
vn 0.984921 -0.173006 -0.000000
vn 0.000000 0.000000 -1.000000
vn -0.988587 -0.150653 -0.000000
vn 0.000000 1.000000 -0.000000
vn 0.999275 0.038081 -0.000000
vn -0.999275 0.038081 -0.000000
vn 1.000000 0.000000 -0.000000
vn -1.000000 0.000000 -0.000000
vn 0.539212 0.842170 -0.000000
vn -0.678697 0.734419 -0.000000
vn 0.645870 0.763447 -0.000000
vn -0.714836 -0.699292 -0.000000
vn 0.619270 -0.785178 -0.000000
vn 0.649955 -0.759972 -0.000000
vn -0.613296 -0.789854 -0.000000
vn -0.753826 0.329794 0.568316
vn -0.025124 0.540026 0.841273
vn -0.025124 0.540026 -0.841273
vn -0.753826 0.329794 -0.568316
vn 0.749610 0.347711 0.563189
vn 0.749610 0.347711 -0.563189
vn 0.011307 -0.668226 -0.743873
vn -0.214473 -0.490233 -0.844791
vn 0.236754 -0.510404 -0.826701
vn 0.011307 -0.668226 0.743873
vn -0.214473 -0.490233 0.844791
vn 0.236754 -0.510404 0.826701
vn -0.479911 0.519312 0.707107
vn -0.021910 0.999760 -0.000000
vn -0.479911 0.519312 -0.707107
vn -0.916160 0.400814 -0.000000
vn 0.456699 0.539838 0.707107
vn 0.907158 0.420790 -0.000000
vn 0.456699 0.539838 -0.707107
vn -0.403085 -0.435060 0.805137
vn -0.403085 -0.435060 -0.805137
vn 0.361146 -0.502014 0.785847
vn 0.361146 -0.502014 -0.785847
vn 0.451386 -0.528198 -0.719206
vn -0.425969 -0.549011 -0.719122
vn 0.021910 -0.999760 -0.000000
vn -0.400812 -0.916160 -0.000000
vn 0.420790 -0.907158 -0.000000
vn 0.451386 -0.528198 0.719206
vn -0.425970 -0.549011 0.719122
vn 0.949094 0.314992 -0.000000
vn -0.988077 -0.153962 -0.000000
vn 0.997168 -0.075211 -0.000000
vn -0.990645 0.136462 -0.000000
vn 0.999561 0.029634 -0.000000
vn -0.999121 -0.041914 -0.000000
# 54 vertex normals

vt 1.000000 1.000000 0.000000
vt 0.500000 1.000000 0.000000
vt 0.500000 0.000000 0.000000
vt 1.000000 0.000000 0.000000
vt 0.000000 1.000000 0.000000
vt 0.000000 0.000000 0.000000
vt 0.488976 0.021444 0.000000
vt 0.488976 0.978556 0.000000
vt 0.011024 0.978556 0.000000
vt 0.011024 0.021444 0.000000
vt 0.988919 0.021444 0.000000
vt 0.988919 0.978556 0.000000
vt 0.511081 0.978556 0.000000
vt 0.511081 0.021444 0.000000
vt 0.484990 0.000000 0.000000
vt 0.015010 0.000000 0.000000
vt 0.015010 1.000000 0.000000
vt 0.484990 1.000000 0.000000
vt 0.000000 0.021444 0.000000
vt 0.000000 0.978556 0.000000
vt 0.985486 0.000000 0.000000
vt 0.514514 0.000000 0.000000
vt 1.000000 0.978556 0.000000
vt 1.000000 0.021444 0.000000
vt 0.514514 1.000000 0.000000
vt 0.985486 1.000000 0.000000
vt 0.011024 1.000000 0.000000
vt 0.488976 1.000000 0.000000
vt 0.511081 1.000000 0.000000
vt 0.988919 1.000000 0.000000
vt 0.488977 -0.018644 0.000000
vt 0.511094 -0.018502 0.000000
vt -0.023179 -0.000881 0.000000
vt 1.022977 -0.001381 0.000000
vt -0.019116 0.021444 0.000000
vt -0.019116 0.978556 0.000000
vt 1.019243 0.978556 0.000000
vt 1.019243 0.021444 0.000000
vt 0.487645 -0.009927 0.000000
vt 0.008841 -0.010021 0.000000
vt 0.990953 -0.010231 0.000000
vt 0.512359 -0.010138 0.000000
# 42 texture coords

g house
s 2
f -86/-42/-54 -64/-41/-54 -63/-40/-54 -88/-39/-54 
s off
f -62/-40/-53 -61/-41/-53 -82/-38/-53 -84/-37/-53 
s 8
f -88/-37/-52 -63/-40/-52 -62/-41/-52 -84/-38/-52 
s 16
f -87/-37/-51 -85/-39/-51 -81/-42/-51 -83/-38/-51 
s 32
f -76/-37/-50 -58/-40/-50 -57/-41/-50 -73/-38/-50 
s 64
f -86/-37/-49 -88/-39/-49 -84/-42/-49 -82/-38/-49 
s off
f -64/-41/-50 -60/-40/-50 -80/-37/-50 -85/-38/-50 
f -86/-37/-50 -82/-38/-50 -78/-42/-50 -79/-39/-50 
f -61/-41/-50 -59/-41/-50 -78/-42/-50 -82/-38/-50 
f -81/-42/-50 -85/-39/-50 -80/-37/-50 -77/-38/-50 
f -60/-40/-48 -58/-40/-48 -76/-37/-48 -80/-37/-48 
f -79/-39/-47 -78/-42/-47 -74/-42/-47 -75/-39/-47 
f -59/-41/-54 -57/-41/-54 -74/-42/-54 -78/-42/-54 
f -77/-38/-46 -80/-37/-46 -76/-37/-46 -73/-38/-46 
s 4
f -72/-37/-48 -71/-39/-48 -70/-42/-48 -69/-38/-48 
s off
f -71/-39/-52 -72/-37/-52 -68/-37/-52 -67/-39/-52 
f -70/-42/-45 -71/-39/-45 -67/-39/-45 -66/-42/-45 
f -69/-38/-50 -70/-42/-50 -66/-42/-50 -65/-38/-50 
f -72/-37/-44 -69/-38/-44 -65/-38/-44 -68/-37/-44 
s 2
f -85/-38/-54 -87/-37/-54 -63/-40/-54 -64/-41/-54 
s off
f -83/-39/-43 -81/-42/-43 -61/-41/-43 -62/-40/-43 
s 8
f -87/-39/-52 -83/-42/-52 -62/-41/-52 -63/-40/-52 
s 32
f -75/-39/-50 -74/-42/-50 -57/-41/-50 -58/-40/-50 
s off
f -64/-41/-50 -86/-42/-50 -79/-39/-50 -60/-40/-50 
f -61/-41/-50 -81/-42/-50 -77/-38/-50 -59/-41/-50 
f -79/-39/-48 -75/-39/-48 -58/-40/-48 -60/-40/-48 
f -77/-38/-54 -73/-38/-54 -57/-41/-54 -59/-41/-54 
f -40/-36/-42 -37/-35/-42 -53/-34/-42 -56/-33/-42 
f -33/-32/-41 -51/-31/-41 -54/-30/-41 -41/-29/-41 
f -55/-28/-52 -43/-27/-52 -19/-27/-52 -47/-28/-52 
f -36/-26/-50 -38/-25/-50 -28/-25/-50 -49/-26/-50 
f -44/-24/-40 -35/-23/-40 -26/-23/-40 -46/-24/-40 
f -52/-22/-52 -42/-21/-52 -21/-21/-52 -45/-22/-52 
f -32/-20/-39 -34/-19/-39 -17/-19/-39 -48/-20/-39 
f -39/-18/-50 -31/-17/-50 -24/-17/-50 -50/-18/-50 
f -27/-16/-38 -29/-15/-38 -23/-15/-38 -20/-16/-38 
f -30/-14/-37 -25/-13/-37 -18/-13/-37 -22/-14/-37 
f -56/-33/-36 -44/-24/-36 -43/-27/-36 
f -55/-28/-35 -42/-21/-35 -41/-29/-35 -40/-36/-35 
f -54/-30/-34 -39/-18/-34 -38/-25/-34 -37/-35/-34 
f -53/-34/-33 -36/-26/-33 -35/-23/-33 
f -52/-22/-32 -34/-19/-32 -33/-32/-32 
f -51/-31/-31 -32/-20/-31 -31/-17/-31 
f -50/-18/-30 -30/-14/-30 -29/-15/-30 -28/-25/-30 
f -49/-26/-29 -27/-16/-29 -26/-23/-29 
f -48/-20/-28 -25/-13/-28 -24/-17/-28 
f -47/-28/-27 -23/-12/-27 -22/-11/-27 -21/-21/-27 
f -46/-24/-26 -20/-10/-26 -19/-27/-26 
f -45/-22/-25 -18/-9/-25 -17/-19/-25 
f -56/-33/-24 -43/-27/-24 -55/-28/-24 -40/-36/-24 
f -40/-36/-23 -41/-29/-23 -54/-30/-23 -37/-35/-23 
f -37/-35/-22 -38/-25/-22 -36/-26/-22 -53/-34/-22 
f -53/-34/-21 -35/-23/-21 -44/-24/-21 -56/-33/-21 
f -41/-29/-20 -42/-21/-20 -52/-22/-20 -33/-32/-20 
f -33/-32/-19 -34/-19/-19 -32/-20/-19 -51/-31/-19 
f -51/-31/-18 -31/-17/-18 -39/-18/-18 -54/-30/-18 
f -43/-27/-17 -44/-24/-17 -46/-24/-17 -19/-27/-17 
f -42/-21/-52 -55/-28/-52 -47/-28/-52 -21/-21/-52 
f -38/-25/-50 -39/-18/-50 -50/-18/-50 -28/-25/-50 
f -35/-23/-16 -36/-26/-16 -49/-26/-16 -26/-23/-16 
f -34/-19/-15 -52/-22/-15 -45/-22/-15 -17/-19/-15 
f -31/-17/-14 -32/-20/-14 -48/-20/-14 -24/-17/-14 
f -28/-25/-13 -29/-15/-13 -27/-16/-13 -49/-26/-13 
f -24/-17/-12 -25/-13/-12 -30/-14/-12 -50/-18/-12 
f -29/-15/-11 -30/-14/-11 -22/-14/-11 -23/-15/-11 
f -20/-8/-10 -46/-24/-10 -26/-23/-10 -27/-7/-10 
f -25/-6/-9 -48/-20/-9 -17/-19/-9 -18/-5/-9 
f -23/-4/-8 -47/-28/-8 -19/-27/-8 -20/-3/-8 
f -18/-2/-7 -45/-22/-7 -21/-21/-7 -22/-1/-7 
s 4
f -16/-37/-48 -15/-39/-48 -14/-42/-48 -13/-38/-48 
s off
f -15/-39/-52 -16/-37/-52 -6/-37/-52 -5/-39/-52 
f -15/-39/-6 -5/-39/-6 -8/-42/-6 -14/-42/-6 
f -14/-42/-50 -8/-42/-50 -7/-38/-50 -13/-38/-50 
f -13/-38/-5 -7/-38/-5 -6/-37/-5 -16/-37/-5 
f -6/-37/-52 -4/-37/-52 -3/-39/-52 -5/-39/-52 
f -3/-39/-4 -2/-42/-4 -8/-42/-4 -5/-39/-4 
f -2/-42/-50 -1/-38/-50 -7/-38/-50 -8/-42/-50 
f -1/-38/-3 -4/-37/-3 -6/-37/-3 -7/-38/-3 
f -4/-37/-52 -12/-37/-52 -11/-39/-52 -3/-39/-52 
f -11/-39/-2 -10/-42/-2 -2/-42/-2 -3/-39/-2 
f -10/-42/-50 -9/-38/-50 -1/-38/-50 -2/-42/-50 
f -9/-38/-1 -12/-37/-1 -4/-37/-1 -1/-38/-1 
# 74 polygons - 8 triangles

